<?xml version="1.0" encoding="utf-8"?>
<!-- Generator: Adobe Illustrator 15.0.0, SVG Export Plug-In . SVG Version: 6.00 Build 0)  -->
<!DOCTYPE svg PUBLIC "-//W3C//DTD SVG 1.1//EN" "http://www.w3.org/Graphics/SVG/1.1/DTD/svg11.dtd">
<svg version="1.1" id="Слой_1" xmlns="http://www.w3.org/2000/svg" xmlns:xlink="http://www.w3.org/1999/xlink" x="0px" y="0px"
	 width="127px" height="42px" viewBox="0 0 127 42" enable-background="new 0 0 127 42" xml:space="preserve">
<g>
	<circle fill="#0085CF" cx="59.658" cy="30.868" r="4.693"/>
	<polygon fill="#0085CF" points="53.244,8.039 45.026,25.538 36.809,8.039 29.095,8.039 42.028,34.933 48.024,34.933 60.957,8.039 	
		"/>
	<polygon fill="#0085CF" points="119.228,8.039 111.011,25.538 102.793,8.039 95.081,8.039 107.358,33.572 103.305,42 110.609,42 
		126.941,8.039 	"/>
	<path fill="#0085CF" d="M80.533,7.41c-2.751,0-5.325,0.767-7.52,2.098V0.971h-7.029v20.514c0,8.023,6.527,14.076,14.549,14.076
		s14.548-6.053,14.548-14.076C95.081,13.463,88.555,7.41,80.533,7.41z M80.533,29.272c-4.302,0-7.788-3.486-7.788-7.787
		c0-4.302,3.486-7.789,7.788-7.789c4.301,0,7.788,3.487,7.788,7.789C88.321,25.786,84.834,29.272,80.533,29.272z"/>
	<g>
		<path fill="#0085CF" d="M24.632,34.933h4.464V21.486c0-8.023-6.527-14.076-14.548-14.076C6.527,7.41,0,13.463,0,21.486
			c0,8.022,6.527,14.075,14.548,14.075c2.75,0,5.324-0.767,7.52-2.098L24.632,34.933z M14.548,29.272
			c-4.301,0-7.788-3.486-7.788-7.788c0-4.301,3.486-7.788,7.788-7.788c4.301,0,7.788,3.487,7.788,7.788
			C22.336,25.786,18.849,29.272,14.548,29.272z"/>
	</g>
</g>
</svg>
